# xmcd
#
# Track frame offsets:
#	150
#	15100
#	36140
#	50972
#	66220
#	91250
#	107172
#	126705
#	142587
#	162332
#
# Disc length: 2392 seconds
#
# Revision: 1
# Processed by: cddbd v1.5.2PL0 Copyright (c) Steve Scherf et al.
# Submitted via: audiograbber 1.83.01
#
DISCID=8309560a
DTITLE=The LaPointes - I Believe In You
DYEAR=2002
DGENRE=Gospel
TTITLE0=I Believe In You
TTITLE1=Us
TTITLE2=Hold On
TTITLE3=Anything Is Possible
TTITLE4=Love Finds You
TTITLE5=To Think
TTITLE6=Take You At Your Word
TTITLE7=How Sweet It Is
TTITLE8=Free
TTITLE9=Jesus I Am Resting
EXTD=
EXTT0=
EXTT1=
EXTT2=
EXTT3=
EXTT4=
EXTT5=
EXTT6=
EXTT7=
EXTT8=
EXTT9=
PLAYORDER=
